<svg width="50" height="50" viewBox="0 0 16 17" fill="none" xmlns="http://www.w3.org/2000/svg">
<g clip-path="url(#clip0_55_24)">
<path d="M8 1.5C8.66304 1.5 9.29893 1.76339 9.76777 2.23223C10.2366 2.70107 10.5 3.33696 10.5 4V4.5H5.5V4C5.5 3.33696 5.76339 2.70107 6.23223 2.23223C6.70107 1.76339 7.33696 1.5 8 1.5ZM11.5 4.5V4C11.5 3.07174 11.1313 2.1815 10.4749 1.52513C9.8185 0.868749 8.92826 0.5 8 0.5C7.07174 0.5 6.1815 0.868749 5.52513 1.52513C4.86875 2.1815 4.5 3.07174 4.5 4V4.5H1V14.5C1 15.0304 1.21071 15.5391 1.58579 15.9142C1.96086 16.2893 2.46957 16.5 3 16.5H13C13.5304 16.5 14.0391 16.2893 14.4142 15.9142C14.7893 15.5391 15 15.0304 15 14.5V4.5H11.5Z" fill="#032E15"/>
</g>
<defs>
<clipPath id="clip0_55_24">
<rect width="50" height="50" fill="white" transform="translate(0 0.5)"/>
</clipPath>
</defs>
</svg>
