<svg width="70" height="70" viewBox="0 0 18 19" fill="none" xmlns="http://www.w3.org/2000/svg">
<path d="M4.5 12.6286C4.6665 14.504 6.20213 15.8349 8.53988 16.007V17.375H9.71325V16.007C12.267 15.8056 13.851 14.3893 13.851 12.2945C13.851 10.5058 12.7856 9.47075 10.5255 8.888L9.71325 8.67763V4.40038C10.9755 4.52413 11.8271 5.20363 12.042 6.21838H13.6957C13.509 4.41838 11.9632 3.12687 9.71325 2.984V1.625H8.53988V3.01213C6.3585 3.27088 4.86113 4.66812 4.86113 6.56262C4.86113 8.19837 5.94787 9.356 7.85475 9.84425L8.541 10.0265V14.5614C7.24837 14.3701 6.3585 13.6614 6.14362 12.6286H4.5ZM8.31487 8.31313C7.1415 8.01725 6.51487 7.385 6.51487 6.49512C6.51487 5.43312 7.30688 4.649 8.53988 4.43862V8.3705L8.31487 8.31313ZM10.1048 10.4191C11.5526 10.7825 12.1882 11.3855 12.1882 12.4093C12.1882 13.6434 11.259 14.4657 9.71325 14.5906V10.3212L10.1048 10.4191Z" fill="#032E15"/>
</svg>
