<svg width="70" height="70" viewBox="0 0 16 17" fill="none" xmlns="http://www.w3.org/2000/svg">
<g clip-path="url(#clip0_20_58)">
<title>{"Alimentação"}</title>
<path d="M12.9999 1C12.9999 0.724003 12.7739 0.494003 12.5019 0.535003C10.7989 0.792003 9.56195 2.547 9.50195 8.997C9.50195 9.12926 9.55435 9.25614 9.64768 9.34985C9.74102 9.44356 9.86768 9.49647 9.99995 9.497C10.5599 9.507 10.9999 9.627 10.9999 10.5V16C10.9999 16.1326 11.0526 16.2598 11.1464 16.3536C11.2402 16.4473 11.3673 16.5 11.4999 16.5H12.4999C12.6326 16.5 12.7597 16.4473 12.8535 16.3536C12.9473 16.2598 12.9999 16.1326 12.9999 16V1ZM4.24995 0.500003C4.31625 0.500003 4.37984 0.526343 4.42672 0.573227C4.47361 0.620111 4.49995 0.683699 4.49995 0.750003V5.872C4.49915 5.90595 4.51187 5.93882 4.53531 5.96339C4.55876 5.98796 4.591 6.00221 4.62495 6.003C4.65889 6.0038 4.69177 5.99108 4.71633 5.96763C4.7409 5.94419 4.75515 5.91195 4.75595 5.878L4.98895 0.738003C4.99204 0.673628 5.01987 0.612934 5.06664 0.568588C5.11341 0.524242 5.1755 0.499671 5.23995 0.500003H5.76195C5.82622 0.499929 5.88806 0.524615 5.93461 0.568934C5.98117 0.613254 6.00886 0.673801 6.01195 0.738003L6.24495 5.878C6.24574 5.91195 6.25999 5.94419 6.28456 5.96763C6.30912 5.99108 6.342 6.0038 6.37595 6.003C6.40989 6.00221 6.44213 5.98796 6.46558 5.96339C6.48902 5.93882 6.50174 5.90595 6.50095 5.872V0.750003C6.50095 0.683872 6.52715 0.620435 6.57382 0.573579C6.62048 0.526724 6.68382 0.500268 6.74995 0.500003H7.03995C7.16524 0.500062 7.28595 0.547161 7.37818 0.631979C7.4704 0.716796 7.52742 0.833149 7.53795 0.958003L7.96095 6.028C7.99114 6.38904 7.90452 6.75023 7.71385 7.05829C7.52317 7.36636 7.23855 7.60499 6.90195 7.739L6.84895 7.761C6.6731 7.83083 6.52307 7.95318 6.41928 8.11136C6.31549 8.26955 6.26299 8.4559 6.26895 8.645L6.46995 15.5C6.46995 15.7575 6.36764 16.0045 6.18555 16.1866C6.00345 16.3687 5.75647 16.471 5.49895 16.471C5.24142 16.471 4.99444 16.3687 4.81235 16.1866C4.63025 16.0045 4.52795 15.7575 4.52795 15.5L4.72995 8.645C4.7359 8.4559 4.68341 8.26955 4.57962 8.11136C4.47583 7.95318 4.32579 7.83083 4.14995 7.761L4.09695 7.739C3.76017 7.60494 3.47542 7.36615 3.28473 7.05788C3.09404 6.74961 3.00753 6.3882 3.03795 6.027L3.46195 0.958003C3.47247 0.833149 3.52949 0.716796 3.62171 0.631979C3.71394 0.547161 3.83465 0.500062 3.95995 0.500003H4.24995Z" fill="#032E15"/>
</g>
<defs>
<clipPath id="clip0_20_58">
<rect width="50" height="50" fill="white" transform="translate(0 0.5)"/>
</clipPath>
</defs>
</svg>
