<svg width="70" height="70" viewBox="0 0 16 17" fill="none" xmlns="http://www.w3.org/2000/svg">
<g clip-path="url(#clip0_22_66)">
<path d="M2.68005 8.17603L9.17005 1.67203C9.92254 0.935258 10.9352 0.524969 11.9883 0.530201C13.0414 0.535433 14.05 0.955765 14.7951 1.69997C15.5403 2.44418 15.9619 3.45222 15.9684 4.50533C15.9749 5.55843 15.5659 6.57163 14.8301 7.32503L13.3531 8.85403L8.34705 13.86L6.82405 15.332C6.07065 16.0679 5.05746 16.4769 4.00435 16.4704C2.95125 16.4638 1.94321 16.0422 1.199 15.2971C0.454788 14.552 0.0344565 13.5434 0.0292242 12.4903C0.0239919 11.4372 0.434281 10.4245 1.17105 9.67203L1.17205 9.67003L2.67705 8.17803L2.67805 8.17603H2.68005ZM8.39005 5.31803C8.34363 5.27154 8.2885 5.23465 8.22783 5.20947C8.16715 5.18428 8.1021 5.17129 8.0364 5.17125C7.97071 5.1712 7.90564 5.1841 7.84493 5.20919C7.78421 5.23429 7.72904 5.2711 7.68255 5.31753C7.63606 5.36395 7.59917 5.41907 7.57399 5.47975C7.54881 5.54043 7.53582 5.60548 7.53577 5.67117C7.53573 5.73687 7.54862 5.80193 7.57372 5.86265C7.59882 5.92336 7.63563 5.97854 7.68205 6.02503C7.77635 6.11611 7.90265 6.1665 8.03375 6.16536C8.16485 6.16422 8.29026 6.11164 8.38296 6.01894C8.47566 5.92623 8.52825 5.80083 8.52939 5.66973C8.53053 5.53863 8.48013 5.41233 8.38905 5.31803H8.39005ZM6.97405 7.43903C7.02181 7.3929 7.0599 7.33773 7.0861 7.27673C7.11231 7.21573 7.1261 7.15012 7.12668 7.08373C7.12725 7.01734 7.1146 6.9515 7.08946 6.89005C7.06432 6.8286 7.02719 6.77278 6.98025 6.72583C6.9333 6.67888 6.87748 6.64176 6.81603 6.61662C6.75458 6.59148 6.68874 6.57882 6.62235 6.5794C6.55596 6.57998 6.49035 6.59377 6.42935 6.61998C6.36835 6.64618 6.31317 6.68427 6.26705 6.73203C6.17597 6.82633 6.12557 6.95263 6.12671 7.08373C6.12785 7.21483 6.18044 7.34023 6.27314 7.43294C6.36585 7.52564 6.49125 7.57822 6.62235 7.57936C6.75345 7.5805 6.87975 7.53011 6.97405 7.43903ZM5.56005 8.85403C5.65394 8.76027 5.70673 8.63306 5.70683 8.50038C5.70692 8.3677 5.6543 8.24041 5.56055 8.14653C5.4668 8.05264 5.33959 7.99984 5.2069 7.99975C5.07422 7.99965 4.94694 8.05227 4.85305 8.14603C4.80656 8.19245 4.76967 8.24757 4.74449 8.30825C4.71931 8.36893 4.70632 8.43398 4.70627 8.49967C4.70618 8.63236 4.7588 8.75964 4.85255 8.85353C4.9463 8.94741 5.07351 9.00021 5.2062 9.00031C5.33888 9.0004 5.46616 8.94778 5.56005 8.85403ZM8.38805 11.682C8.43581 11.6359 8.4739 11.5807 8.5001 11.5197C8.52631 11.4587 8.5401 11.3931 8.54068 11.3267C8.54125 11.2603 8.5286 11.1945 8.50346 11.133C8.47832 11.0716 8.44119 11.0158 8.39425 10.9688C8.3473 10.9219 8.29148 10.8848 8.23003 10.8596C8.16858 10.8345 8.10274 10.8218 8.03635 10.8224C7.96996 10.823 7.90435 10.8368 7.84335 10.863C7.78235 10.8892 7.72717 10.9273 7.68105 10.975C7.58997 11.0693 7.53957 11.1956 7.54071 11.3267C7.54185 11.4578 7.59444 11.5832 7.68714 11.6759C7.77985 11.7686 7.90525 11.8212 8.03635 11.8224C8.16745 11.8235 8.29375 11.7731 8.38805 11.682ZM9.80205 9.56103C9.75593 9.51327 9.70075 9.47518 9.63975 9.44898C9.57875 9.42277 9.51314 9.40898 9.44675 9.4084C9.38036 9.40782 9.31452 9.42048 9.25307 9.44562C9.19163 9.47076 9.1358 9.50788 9.08885 9.55483C9.04191 9.60178 9.00478 9.6576 8.97964 9.71905C8.9545 9.7805 8.94185 9.84634 8.94243 9.91273C8.943 9.97912 8.9568 10.0447 8.983 10.1057C9.0092 10.1667 9.0473 10.2219 9.09505 10.268C9.18935 10.3591 9.31565 10.4095 9.44675 10.4084C9.57785 10.4072 9.70326 10.3546 9.79596 10.2619C9.88866 10.1692 9.94125 10.0438 9.94239 9.91273C9.94353 9.78163 9.89313 9.65533 9.80205 9.56103ZM11.2161 8.85403C11.2639 8.80797 11.302 8.75285 11.3283 8.69189C11.3546 8.63092 11.3685 8.56534 11.3692 8.49895C11.3698 8.43256 11.3573 8.36671 11.3322 8.30523C11.3072 8.24375 11.2701 8.18787 11.2232 8.14086C11.1764 8.09385 11.1206 8.05664 11.0592 8.03142C10.9978 8.00619 10.9319 7.99344 10.8656 7.99392C10.7992 7.99441 10.7335 8.0081 10.6725 8.03422C10.6115 8.06033 10.5562 8.09834 10.5101 8.14603C10.4162 8.23978 10.3634 8.36699 10.3633 8.49967C10.3632 8.63236 10.4158 8.75964 10.5096 8.85353C10.6033 8.94741 10.7305 9.00021 10.8632 9.00031C10.9959 9.0004 11.1232 8.94778 11.2171 8.85403H11.2161ZM6.97405 9.56103C6.92793 9.51327 6.87275 9.47518 6.81175 9.44898C6.75075 9.42277 6.68514 9.40898 6.61875 9.4084C6.55236 9.40782 6.48652 9.42048 6.42507 9.44562C6.36363 9.47076 6.3078 9.50788 6.26085 9.55483C6.21391 9.60178 6.17678 9.6576 6.15164 9.71905C6.1265 9.7805 6.11385 9.84634 6.11443 9.91273C6.115 9.97912 6.1288 10.0447 6.155 10.1057C6.1812 10.1667 6.2193 10.2219 6.26705 10.268C6.36135 10.3591 6.48765 10.4095 6.61875 10.4084C6.74985 10.4072 6.87526 10.3546 6.96796 10.2619C7.06066 10.1692 7.11325 10.0438 7.11439 9.91273C7.11553 9.78163 7.06513 9.65533 6.97405 9.56103ZM8.38805 8.85403C8.43454 8.8076 8.47143 8.75248 8.49661 8.6918C8.5218 8.63112 8.53478 8.56608 8.53483 8.50038C8.53487 8.43468 8.52198 8.36962 8.49688 8.30891C8.47178 8.24819 8.43497 8.19301 8.38855 8.14653C8.34213 8.10004 8.287 8.06315 8.22633 8.03797C8.16565 8.01278 8.1006 7.99979 8.0349 7.99975C7.96921 7.9997 7.90414 8.0126 7.84343 8.03769C7.78271 8.06279 7.72754 8.0996 7.68105 8.14603C7.58716 8.23978 7.53437 8.36699 7.53427 8.49967C7.53418 8.63236 7.5868 8.75964 7.68055 8.85353C7.7743 8.94741 7.90152 9.00021 8.0342 9.00031C8.16688 9.0004 8.29416 8.94778 8.38805 8.85403ZM9.80205 6.73203C9.75593 6.68427 9.70075 6.64618 9.63975 6.61998C9.57875 6.59377 9.51314 6.57998 9.44675 6.5794C9.38036 6.57882 9.31452 6.59148 9.25307 6.61662C9.19163 6.64176 9.1358 6.67888 9.08885 6.72583C9.04191 6.77278 9.00478 6.8286 8.97964 6.89005C8.9545 6.9515 8.94185 7.01734 8.94243 7.08373C8.943 7.15012 8.9568 7.21573 8.983 7.27673C9.0092 7.33773 9.0473 7.3929 9.09505 7.43903C9.18935 7.53011 9.31565 7.5805 9.44675 7.57936C9.57785 7.57822 9.70326 7.52564 9.79596 7.43294C9.88866 7.34023 9.94125 7.21483 9.94239 7.08373C9.94353 6.95263 9.89313 6.82633 9.80205 6.73203ZM8.64605 3.85403L12.6461 7.85403L13.3541 7.14603L9.35405 3.14603L8.64605 3.85403ZM7.35405 13.146L3.35405 9.14603L2.64605 9.85403L6.64605 13.854L7.35405 13.146Z" fill="#032E15"/>
</g>
<defs>
<clipPath id="clip0_22_66">
<rect width="70" height="70" fill="white" transform="translate(0 0.5)"/>
</clipPath>
</defs>
</svg>
