<svg width="70" height="70" viewBox="0 0 16 17" fill="none" xmlns="http://www.w3.org/2000/svg">
<g clip-path="url(#clip0_22_64)">
<path d="M2.51998 4.015C2.71288 3.565 3.03367 3.18155 3.44255 2.91223C3.85142 2.6429 4.33037 2.49957 4.81998 2.5H11.182C12.182 2.5 13.086 3.096 13.48 4.015L14.272 5.863C14.347 6.038 14.482 6.182 14.652 6.267C15.152 6.517 15.507 6.982 15.617 7.529L15.952 9.208C15.9853 9.36933 16.0016 9.53267 16.001 9.698V10.111C16.001 10.925 15.611 11.654 15.001 12.108V14C15.001 14.1326 14.9483 14.2598 14.8545 14.3536C14.7608 14.4473 14.6336 14.5 14.501 14.5H12.501C12.3684 14.5 12.2412 14.4473 12.1474 14.3536C12.0537 14.2598 12.001 14.1326 12.001 14V12.662C10.709 12.71 9.25598 12.75 8.00098 12.75C6.74598 12.75 5.29298 12.71 4.00098 12.662V14C4.00098 14.1326 3.9483 14.2598 3.85453 14.3536C3.76076 14.4473 3.63358 14.5 3.50098 14.5H1.50098C1.36837 14.5 1.24119 14.4473 1.14742 14.3536C1.05365 14.2598 1.00098 14.1326 1.00098 14V12.108C0.390977 11.654 0.000976562 10.925 0.000976562 10.111V9.698C0.00114439 9.53345 0.0175573 9.36932 0.0499766 9.208L0.384977 7.528C0.494977 6.982 0.849976 6.516 1.34898 6.267C1.52014 6.18215 1.65529 6.03884 1.72998 5.863L2.52198 4.015H2.51998ZM2.99998 10.5C3.26519 10.5 3.51955 10.3946 3.70708 10.2071C3.89462 10.0196 3.99998 9.76522 3.99998 9.5C3.99998 9.23478 3.89462 8.98043 3.70708 8.79289C3.51955 8.60536 3.26519 8.5 2.99998 8.5C2.73476 8.5 2.48041 8.60536 2.29287 8.79289C2.10533 8.98043 1.99998 9.23478 1.99998 9.5C1.99998 9.76522 2.10533 10.0196 2.29287 10.2071C2.48041 10.3946 2.73476 10.5 2.99998 10.5ZM13 10.5C13.2652 10.5 13.5195 10.3946 13.7071 10.2071C13.8946 10.0196 14 9.76522 14 9.5C14 9.23478 13.8946 8.98043 13.7071 8.79289C13.5195 8.60536 13.2652 8.5 13 8.5C12.7348 8.5 12.4804 8.60536 12.2929 8.79289C12.1053 8.98043 12 9.23478 12 9.5C12 9.76522 12.1053 10.0196 12.2929 10.2071C12.4804 10.3946 12.7348 10.5 13 10.5ZM5.99998 8.5C5.73476 8.5 5.48041 8.60536 5.29287 8.79289C5.10533 8.98043 4.99998 9.23478 4.99998 9.5C4.99998 9.76522 5.10533 10.0196 5.29287 10.2071C5.48041 10.3946 5.73476 10.5 5.99998 10.5H9.99998C10.2652 10.5 10.5195 10.3946 10.7071 10.2071C10.8946 10.0196 11 9.76522 11 9.5C11 9.23478 10.8946 8.98043 10.7071 8.79289C10.5195 8.60536 10.2652 8.5 9.99998 8.5H5.99998ZM2.90598 5.689C2.86689 5.76965 2.84975 5.85919 2.85627 5.94857C2.8628 6.03796 2.89277 6.12405 2.94317 6.19817C2.99356 6.27229 3.06259 6.33182 3.14332 6.37076C3.22404 6.40971 3.3136 6.42669 3.40298 6.42C4.31298 6.347 6.75298 6.25 7.99998 6.25C9.24698 6.25 11.688 6.347 12.597 6.42C12.6864 6.42669 12.7759 6.40971 12.8566 6.37076C12.9374 6.33182 13.0064 6.27229 13.0568 6.19817C13.1072 6.12405 13.1371 6.03796 13.1437 5.94857C13.1502 5.85919 13.1331 5.76965 13.094 5.689L12.138 3.776C12.0964 3.69305 12.0326 3.62331 11.9536 3.57456C11.8747 3.52582 11.7838 3.5 11.691 3.5H4.30898C4.2162 3.5 4.12525 3.52582 4.04631 3.57456C3.96736 3.62331 3.90354 3.69305 3.86198 3.776L2.90598 5.689Z" fill="#032E15"/>
</g>
<defs>
<clipPath id="clip0_22_64">
<rect width="70" height="70" fill="white" transform="translate(0 0.5)"/>
</clipPath>
</defs>
</svg>
