<svg width="32" height="33" viewBox="0 0 32 33" fill="none" xmlns="http://www.w3.org/2000/svg">
<g clip-path="url(#clip0_24_298)">
<path d="M32 16.5C32 20.7435 30.3143 24.8131 27.3137 27.8137C24.3131 30.8143 20.2435 32.5 16 32.5C11.7565 32.5 7.68687 30.8143 4.68629 27.8137C1.68571 24.8131 0 20.7435 0 16.5C0 12.2565 1.68571 8.18687 4.68629 5.18629C7.68687 2.18571 11.7565 0.5 16 0.5C20.2435 0.5 24.3131 2.18571 27.3137 5.18629C30.3143 8.18687 32 12.2565 32 16.5ZM17 9.5C17 9.23478 16.8946 8.98043 16.7071 8.79289C16.5196 8.60536 16.2652 8.5 16 8.5C15.7348 8.5 15.4804 8.60536 15.2929 8.79289C15.1054 8.98043 15 9.23478 15 9.5V15.5H9C8.73478 15.5 8.48043 15.6054 8.29289 15.7929C8.10536 15.9804 8 16.2348 8 16.5C8 16.7652 8.10536 17.0196 8.29289 17.2071C8.48043 17.3946 8.73478 17.5 9 17.5H15V23.5C15 23.7652 15.1054 24.0196 15.2929 24.2071C15.4804 24.3946 15.7348 24.5 16 24.5C16.2652 24.5 16.5196 24.3946 16.7071 24.2071C16.8946 24.0196 17 23.7652 17 23.5V17.5H23C23.2652 17.5 23.5196 17.3946 23.7071 17.2071C23.8946 17.0196 24 16.7652 24 16.5C24 16.2348 23.8946 15.9804 23.7071 15.7929C23.5196 15.6054 23.2652 15.5 23 15.5H17V9.5Z" fill="#008236"/>
</g>
<defs>
<clipPath id="clip0_24_298">
<rect width="32" height="32" fill="white" transform="translate(0 0.5)"/>
</clipPath>
</defs>
</svg>
